<svg version="1" xmlns="http://www.w3.org/2000/svg" width="682.667" height="682.667" viewBox="0 0 512.000000 512.000000"><path d="M413.5 60.2c-20.5 1.8-41.1 9.6-53.1 20-10.8 9.4-17.4 19.9-21.8 35l-2.5 8.3-.1-5c-.5-16.1-6.2-29.9-16.9-40.6-6.6-6.6-15.4-11.7-23.1-13.5-1.9-.4-4.2-1-5-1.3-.8-.2-23.9-.6-51.2-.8l-49.8-.4V223h53.8l-.1-19.7-.1-19.7 19.5-.2c10.7 0 21.4-.4 23.9-.8 13-2.1 24.6-8.2 33.5-17.5 5.6-5.9 9.2-11.9 12.3-20.6l2-6 .2 6.5c.6 33.3 13.7 57.1 38 69.4 10.7 5.4 17.9 7.6 34.5 10.2 5 .8 29.4.9 36 .1 4.4-.5 7.5-1.1 17.5-3.2 5.7-1.2 15.9-4.8 21.8-7.8 5.5-2.8 6.2-3.4 6.2-6.2.1-6 .1-68.1.1-73.6l-.1-5.5-37-.1h-37V161h29.6l-.1 8c-.1 4.4-.4 8.2-.7 8.5-2.7 2.7-27.5 2.7-35.1 0-7.4-2.7-13.4-8.8-16.2-16.8-2.2-5.9-2.4-8.1-2.2-18.5.2-10.3.6-12.4 2.9-17.5 4.5-9.5 11.4-14.7 24.3-18.1 4.4-1.1 9.5-1.4 20.9-1.1 8.3.2 16.2.6 17.6.9 1.4.2 4.2.7 6.2 1.1 2 .3 6.7 1.5 10.4 2.5 3.7 1.1 7 1.8 7.3 1.6.4-.3.6-10.5.6-22.7V66.6l-5-1.3c-18.8-5.1-41.2-6.9-62-5.1zm-144 44.2c7.1 1.4 11.3 7.4 11.9 16.8.5 8.4-2.8 15.4-8.7 18.5-4 2.1-28.7 2.9-28.8 1-.1-1.8-.1-32.9 0-35.2.1-1.9.7-2 11.1-1.9 6.1.1 12.6.5 14.5.8zM29 142.4V223h53.9v-17.8-22l.1-4.2h6c8.8 0 8.2-.8 21.8 30l6 13.5 28.1.3 28.1.2-1.4-3.2c-10.6-25-18.6-42.2-21.3-46.1-1.9-2.7-3.3-5-3.1-5.1 12.4-7.5 22.8-21.1 26.3-34.2 1.9-7.2 1.8-22.3-.2-30.8-4.4-19-18.2-34.1-35.3-38.6-2.5-.7-5.4-1.5-6.5-1.8-1.1-.3-24.6-.7-52.2-.9L29 61.9v80.5zm83.8-36.6c9 4.7 10.4 21.4 2.3 28-3.4 2.7-7.1 3.4-19.3 3.6l-12.8.3-.1-6.1c-.2-11.1.1-26.7.5-27.4.2-.4 6.1-.6 13.2-.5 10 .2 13.4.6 16.2 2.1zM211.9 284.2c-.1 1.7-.1 35.1 0 36 .1.3 13 .6 28.8.5l28.8-.2V283h-28.7c-22.3 0-28.8.3-28.9 1.2zM290 367.8V452l26.8-.2 26.7-.3.1-15.6.1-15.6 3.3-3.7c1.8-2 3.6-3.6 4-3.6.4 0 6.5 8.8 13.5 19.5l12.7 19.5h57l-3.5-4.8c-1.9-2.6-12.6-17.3-23.9-32.7-11.2-15.4-20.8-28.6-21.3-29.4-.5-.9-.3-1.8.6-2.5.8-.6 3.7-3.6 6.4-6.6 4.4-4.8 15.3-16.6 33.3-36 2.8-3 5.2-5.7 5.2-6 0-.3-13.5-.5-30.1-.5h-30l-13.4 14c-7.4 7.7-13.5 13.5-13.5 13-.1-.6-.2-18.1-.3-39l-.2-38H290v84.3zM445.9 284.7c0 1-.1 9.4-.1 18.8l-.1 17 28.6.1c15.8.1 28.8-.1 28.8-.5.1-.3.2-8.8.3-18.9l.1-18.2h-28.7c-26.7 0-28.8.1-28.9 1.7zM4 334c-.7.5 2.3 12.7 12.1 49 1.7 6.3 3.2 12.1 3.4 13 .2.8 2.2 8.5 4.5 17 2.2 8.5 4.2 16.2 4.4 17.1.3.9 1.7 6.1 3.2 11.7l2.7 10.2h48.3l7.3-22c4-12.1 7.6-22.2 8-22.4.3-.2 4 9.7 8.1 22l7.5 22.4 23.9-.2 24-.3 7.8-29.5c4.3-16.2 8-30.4 8.3-31.5.2-1.1 1.5-6.1 2.9-11 4-15 11.6-44.3 11.6-45.2 0-.4-11.5-.8-25.5-.8-24.8 0-25.6 0-26 2-.3 1.1-1.6 6.8-3 12.8-1.3 5.9-2.7 11.8-2.9 13-.2 1.2-1.4 6.5-2.6 11.7-2.6 10.9-2.4 11.1-7.1-6.5-1.6-6.1-3.7-14.2-4.8-18-1-3.9-2.4-8.8-3-11l-1-4H77v9c0 8-.5 10.5-4.5 22.5-2.5 7.4-4.5 14-4.5 14.7 0 .6-.4 1.4-.9 1.7-.7.5-5.1-15.5-7.6-27.4-1.1-5.3-4.8-19.6-5.2-20-.6-.6-49.2-.7-50.3 0zM204.1 334c-.5.3-1.3 5.4-2 11.5-.7 6-1.4 12.3-1.6 14-.2 1.6-.6 5.3-.9 8l-.6 5.1h8.3l8.2-.1.2 38.5c.1 21.2.2 39.1.2 39.7.1 1 6.2 1.3 26.9 1.3h26.7V333.5h-32.3c-17.8 0-32.7.2-33.1.5zM438 334.5c-.5.5-1.1 4.1-1.5 8-.3 3.8-.8 7.7-1 8.5-.5 1.9-1.8 14.5-1.9 18.5l-.1 3h8.1l8.2-.1V411c0 21.2.1 39.1.1 39.8.1 1 5.8 1.2 26.9 1l26.7-.3v-118h-32.3c-20.5 0-32.7.4-33.2 1z"/></svg>